<?xml version="1.0" standalone="no"?>
<!DOCTYPE svg PUBLIC "-//W3C//DTD SVG 20010904//EN"
 "http://www.w3.org/TR/2001/REC-SVG-20010904/DTD/svg10.dtd">
<svg version="1.0" xmlns="http://www.w3.org/2000/svg"
 width="200.000000pt" height="200.000000pt" viewBox="0 0 200.000000 200.000000"
 preserveAspectRatio="xMidYMid meet">

<g transform="translate(0.000000,200.000000) scale(0.100000,-0.100000)"
fill="#458789" stroke="none">
<path d="M605 1129 c-5 -14 0 -31 13 -48 l20 -27 -79 -20 c-56 -14 -79 -17
-79 -9 0 25 -42 66 -64 63 -31 -4 -31 -34 -1 -64 14 -14 25 -27 23 -29 -8 -8
-134 -42 -140 -38 -5 2 -8 14 -8 26 0 34 -28 69 -53 65 -30 -4 -34 -44 -8 -79
l22 -29 -28 0 c-15 0 -47 10 -70 22 -47 25 -75 18 -81 -19 -4 -25 35 -38 73
-23 14 5 54 9 88 9 34 -1 74 2 89 6 26 7 27 6 16 -23 -13 -33 -6 -60 18 -69
24 -9 44 23 44 73 l0 42 71 26 c38 14 73 26 77 26 5 0 8 -24 7 -52 0 -46 3
-53 21 -56 30 -4 50 46 36 87 -6 16 -8 32 -5 35 8 8 92 7 120 0 l23 -6 -21
-29 c-25 -36 -22 -82 5 -88 26 -4 46 25 46 66 0 18 3 33 6 33 16 0 130 -45
139 -55 6 -6 27 -24 48 -39 l38 -28 37 28 c20 15 42 32 47 39 6 6 33 19 61 28
27 9 58 19 67 23 13 5 17 1 17 -19 0 -47 18 -79 43 -75 31 4 35 52 8 89 l-21
28 33 6 c18 4 51 5 72 3 l39 -3 -3 -51 c-3 -55 15 -82 45 -70 13 5 16 16 12
56 -3 28 -1 50 3 50 4 0 40 -12 78 -26 68 -25 71 -28 71 -60 0 -54 17 -86 43
-82 26 4 35 45 17 78 -11 21 -10 22 22 14 18 -4 58 -6 88 -6 30 1 70 -3 87 -9
43 -14 75 -3 71 23 -6 38 -33 45 -81 20 -23 -12 -55 -22 -70 -22 l-28 0 22 29
c26 35 22 75 -8 79 -24 4 -53 -39 -53 -78 0 -11 -2 -20 -4 -20 -8 0 -141 42
-145 46 -2 2 8 13 22 25 30 23 35 56 11 66 -22 8 -46 -7 -64 -43 l-15 -29 -77
20 -76 20 19 24 c24 29 21 64 -4 69 -26 5 -55 -25 -62 -62 -6 -28 -13 -33 -63
-49 -31 -10 -62 -20 -68 -23 -7 -3 -10 11 -10 38 1 34 -3 43 -18 46 -27 6 -46
-24 -46 -69 0 -21 -4 -41 -10 -44 -5 -3 -10 0 -10 8 0 33 -69 63 -85 37 -4 -7
-13 -6 -27 1 -28 15 -67 3 -80 -26 -15 -34 -28 -21 -28 29 0 47 -17 70 -47 64
-22 -4 -30 -53 -12 -75 15 -18 19 -18 -78 12 -47 15 -63 25 -63 38 0 10 -7 31
-15 47 -19 37 -60 42 -70 9z m65 -60 c0 -18 -20 1 -36 34 l-15 32 25 -28 c15
-15 26 -33 26 -38z m730 52 c0 -14 -49 -68 -50 -55 0 11 38 64 46 64 2 0 4 -4
4 -9z m-530 -95 c0 -28 -17 -8 -25 29 -6 29 -6 29 9 11 9 -11 16 -29 16 -40z
m299 2 c-17 -31 -23 -9 -8 28 9 22 13 25 16 12 2 -9 -1 -27 -8 -40z m-721 14
c8 -12 10 -22 4 -22 -5 0 -17 12 -27 26 -11 17 -13 25 -4 22 7 -2 19 -14 27
-26z m1152 9 c-12 -23 -29 -35 -36 -28 -6 5 31 47 41 47 3 0 1 -9 -5 -19z
m-1335 -62 c9 -16 11 -29 6 -29 -10 0 -41 45 -41 60 0 18 19 1 35 -31z m1509
-7 c-10 -14 -19 -21 -21 -15 -3 7 4 24 13 39 10 15 20 21 22 15 2 -6 -4 -24
-14 -39z m-1193 -55 c-13 -13 -15 15 -3 53 7 24 7 23 10 -9 2 -18 -1 -38 -7
-44z m869 20 c0 -16 -4 -26 -10 -22 -5 3 -10 23 -10 43 0 28 3 33 10 22 5 -8
10 -28 10 -43z m-701 -9 c-17 -31 -23 -9 -8 28 9 22 13 25 16 12 2 -9 -1 -27
-8 -40z m541 -2 c0 -28 -17 -8 -25 29 -6 29 -6 29 9 11 9 -11 16 -29 16 -40z
m-1147 7 c-7 -2 -21 -2 -30 0 -10 3 -4 5 12 5 17 0 24 -2 18 -5z m1775 0 c-10
-2 -26 -2 -35 0 -10 3 -2 5 17 5 19 0 27 -2 18 -5z m-1548 -63 c-18 -33 -24
-16 -9 27 11 31 14 34 17 16 2 -12 -2 -32 -8 -43z m1300 -4 c0 -32 -19 -5 -25
34 l-6 35 15 -25 c8 -14 15 -34 16 -44z"/>
<path d="M775 1070 c-4 -6 -3 -16 3 -22 6 -6 12 -6 17 2 4 6 3 16 -3 22 -6 6
-12 6 -17 -2z"/>
<path d="M1225 1070 c-4 -6 -3 -16 3 -22 6 -6 12 -6 17 2 4 6 3 16 -3 22 -6 6
-12 6 -17 -2z"/>
<path d="M490 1055 c0 -8 7 -15 15 -15 8 0 15 7 15 15 0 8 -7 15 -15 15 -8 0
-15 -7 -15 -15z"/>
<path d="M1507 1063 c-12 -11 -8 -23 8 -23 8 0 15 7 15 15 0 16 -12 20 -23 8z"/>
<path d="M370 1005 c0 -8 7 -15 15 -15 8 0 15 7 15 15 0 8 -7 15 -15 15 -8 0
-15 -7 -15 -15z"/>
<path d="M627 1014 c-8 -8 1 -24 14 -24 5 0 9 7 9 15 0 15 -12 20 -23 9z"/>
<path d="M1370 1005 c0 -8 7 -15 15 -15 8 0 15 7 15 15 0 8 -7 15 -15 15 -8 0
-15 -7 -15 -15z"/>
<path d="M1627 1014 c-8 -8 1 -24 14 -24 5 0 9 7 9 15 0 15 -12 20 -23 9z"/>
<path d="M486 973 c-11 -11 -6 -23 9 -23 8 0 15 4 15 9 0 13 -16 22 -24 14z"/>
<path d="M1517 973 c-12 -11 -8 -23 8 -23 8 0 15 7 15 15 0 16 -12 20 -23 8z"/>
<path d="M802 958 c6 -18 28 -21 28 -4 0 9 -7 16 -16 16 -9 0 -14 -5 -12 -12z"/>
<path d="M1190 955 c0 -8 7 -15 15 -15 8 0 15 7 15 15 0 8 -7 15 -15 15 -8 0
-15 -7 -15 -15z"/>
<path d="M285 911 c-7 -12 12 -24 25 -16 11 7 4 25 -10 25 -5 0 -11 -4 -15 -9z"/>
<path d="M1710 904 c0 -17 22 -14 28 4 2 7 -3 12 -12 12 -9 0 -16 -7 -16 -16z"/>
</g>
</svg>
