<?xml version="1.0" standalone="no"?>
<!DOCTYPE svg PUBLIC "-//W3C//DTD SVG 20010904//EN"
 "http://www.w3.org/TR/2001/REC-SVG-20010904/DTD/svg10.dtd">
<svg version="1.0" xmlns="http://www.w3.org/2000/svg"
 width="820.000000pt" height="380.000000pt" viewBox="0 0 820.000000 380.000000"
 preserveAspectRatio="xMidYMid meet">

<g transform="translate(0.000000,380.000000) scale(0.100000,-0.100000)"
fill="#458789" stroke="none">
<path d="M2903 2363 c15 -2 37 -2 50 0 12 2 0 4 -28 4 -27 0 -38 -2 -22 -4z"/>
<path d="M3038 2343 c6 -2 18 -2 25 0 6 3 1 5 -13 5 -14 0 -19 -2 -12 -5z"/>
<path d="M2595 2320 c-143 -26 -170 -34 -279 -86 -70 -34 -166 -123 -191 -178
-23 -51 -16 -122 16 -167 l24 -34 3 40 c3 50 33 155 44 155 4 0 8 7 8 15 0 16
114 135 129 135 5 0 16 6 23 13 46 43 216 87 342 87 77 0 238 -20 251 -31 5
-5 18 -9 30 -9 21 0 157 -42 210 -65 17 -7 55 -23 85 -35 30 -12 101 -44 158
-71 56 -27 107 -49 111 -49 5 0 11 -3 13 -7 2 -5 48 -31 103 -59 55 -28 183
-93 285 -145 102 -52 221 -110 265 -129 44 -19 82 -38 83 -42 2 -4 9 -8 16 -8
10 0 51 -16 181 -69 95 -40 226 -81 335 -106 41 -9 91 -21 110 -26 59 -14 281
-21 345 -11 92 16 145 31 195 56 25 13 84 28 130 35 117 17 232 40 252 52 10
5 23 9 30 9 20 0 135 60 153 80 22 24 12 39 -15 22 -11 -6 -36 -16 -57 -21
-21 -5 -65 -17 -98 -26 -33 -9 -89 -20 -125 -25 -36 -4 -73 -11 -82 -15 -13
-5 -18 -2 -18 10 0 17 -1 17 -21 -1 -19 -17 -38 -19 -218 -18 -108 0 -225 6
-261 12 -36 6 -110 18 -165 28 -55 9 -111 20 -125 24 -14 5 -41 12 -60 15 -19
3 -46 10 -60 14 -14 5 -54 17 -90 27 -36 9 -69 21 -75 25 -5 4 -26 10 -45 14
-19 4 -41 11 -50 15 -8 4 -35 16 -60 25 -64 25 -77 30 -153 64 -38 17 -75 31
-83 31 -8 0 -14 5 -14 10 0 6 -5 10 -10 10 -15 0 -144 63 -148 72 -2 5 -8 8
-13 8 -5 0 -69 29 -142 64 -72 35 -154 74 -182 86 -27 13 -73 33 -102 46 -28
13 -58 24 -65 24 -8 0 -18 4 -24 8 -5 5 -31 17 -59 26 -27 10 -64 24 -82 32
-17 8 -40 14 -51 14 -12 0 -24 5 -27 10 -3 6 -16 10 -28 9 -19 -1 -18 -2 8
-14 17 -8 40 -14 53 -15 12 0 22 -4 22 -10 0 -5 8 -10 18 -10 9 0 30 -7 46
-15 15 -8 34 -15 41 -15 8 0 26 -6 42 -14 15 -8 53 -25 83 -39 30 -13 94 -43
142 -66 48 -22 92 -41 98 -41 5 0 10 -4 10 -10 0 -5 5 -10 11 -10 5 0 133 -60
282 -134 299 -147 340 -166 356 -166 6 0 11 -4 11 -9 0 -5 10 -11 23 -14 12
-3 80 -28 152 -56 71 -28 137 -51 147 -51 9 0 19 -4 22 -9 4 -5 25 -12 48 -16
23 -4 49 -11 58 -15 8 -5 53 -16 100 -25 47 -9 107 -20 133 -26 27 -5 109 -9
183 -9 112 0 133 -2 122 -13 -44 -44 -267 -61 -416 -32 -139 27 -349 94 -424
135 -10 6 -22 10 -28 10 -29 0 -880 424 -888 443 -2 4 -8 7 -13 7 -4 0 -55 22
-112 49 -57 28 -128 59 -158 71 -30 11 -63 25 -74 29 -67 30 -239 76 -340 91
-232 35 -267 36 -410 10z"/>
<path d="M3113 2333 c9 -2 23 -2 30 0 6 3 -1 5 -18 5 -16 0 -22 -2 -12 -5z"/>
<path d="M3183 2313 c9 -2 23 -2 30 0 6 3 -1 5 -18 5 -16 0 -22 -2 -12 -5z"/>
<path d="M5190 2179 c-62 -7 -143 -27 -165 -40 -5 -4 -25 -10 -42 -14 -18 -3
-33 -11 -33 -16 0 -5 -6 -9 -12 -9 -7 0 -69 -28 -138 -63 -191 -95 -317 -128
-417 -109 -123 23 -130 24 -108 9 11 -8 38 -22 60 -31 22 -10 54 -24 70 -31
63 -29 169 -47 235 -42 63 5 78 10 160 45 43 18 164 93 168 104 2 4 10 8 18 8
8 0 14 4 14 8 0 5 39 28 87 52 66 32 105 45 165 52 151 18 294 -17 377 -93 43
-39 81 -119 88 -184 7 -65 23 -63 23 3 0 45 -17 107 -42 162 -17 36 -116 129
-144 136 -13 3 -24 10 -24 15 0 5 -7 9 -15 9 -8 0 -34 6 -57 14 -55 18 -184
25 -268 15z"/>
<path d="M5712 1740 c0 -14 2 -19 5 -12 2 6 2 18 0 25 -3 6 -5 1 -5 -13z"/>
</g>
</svg>
